<svg width="67" height="29" viewBox="0 0 67 29" fill="none" xmlns="http://www.w3.org/2000/svg">
<circle cx="14.5" cy="14.5" r="14.5" fill="white"/>
<path d="M24.852 20.168C24.096 20.168 23.3913 20.0467 22.738 19.804C22.094 19.552 21.534 19.1973 21.058 18.74C20.582 18.2827 20.2087 17.746 19.938 17.13C19.6767 16.514 19.546 15.8373 19.546 15.1C19.546 14.3627 19.6767 13.686 19.938 13.07C20.2087 12.454 20.582 11.9173 21.058 11.46C21.5433 11.0027 22.108 10.6527 22.752 10.41C23.396 10.158 24.1007 10.032 24.866 10.032C25.7153 10.032 26.4807 10.1813 27.162 10.48C27.8527 10.7693 28.4313 11.1987 28.898 11.768L27.442 13.112C27.106 12.7293 26.7327 12.4447 26.322 12.258C25.9113 12.062 25.4633 11.964 24.978 11.964C24.5207 11.964 24.1007 12.0387 23.718 12.188C23.3353 12.3373 23.004 12.552 22.724 12.832C22.444 13.112 22.2247 13.4433 22.066 13.826C21.9167 14.2087 21.842 14.6333 21.842 15.1C21.842 15.5667 21.9167 15.9913 22.066 16.374C22.2247 16.7567 22.444 17.088 22.724 17.368C23.004 17.648 23.3353 17.8627 23.718 18.012C24.1007 18.1613 24.5207 18.236 24.978 18.236C25.4633 18.236 25.9113 18.1427 26.322 17.956C26.7327 17.76 27.106 17.466 27.442 17.074L28.898 18.418C28.4313 18.9873 27.8527 19.4213 27.162 19.72C26.4807 20.0187 25.7107 20.168 24.852 20.168Z" fill="#191D21"/>
<path d="M30.2756 20V9.612H32.4596V20H30.2756ZM39.1065 20V18.53L38.9665 18.208V15.576C38.9665 15.1093 38.8218 14.7453 38.5325 14.484C38.2525 14.2227 37.8185 14.092 37.2305 14.092C36.8292 14.092 36.4325 14.1573 36.0405 14.288C35.6578 14.4093 35.3312 14.5773 35.0605 14.792L34.2765 13.266C34.6872 12.9767 35.1818 12.7527 35.7605 12.594C36.3392 12.4353 36.9272 12.356 37.5245 12.356C38.6725 12.356 39.5638 12.6267 40.1985 13.168C40.8332 13.7093 41.1505 14.554 41.1505 15.702V20H39.1065ZM36.8105 20.112C36.2225 20.112 35.7185 20.014 35.2985 19.818C34.8785 19.6127 34.5565 19.3373 34.3325 18.992C34.1085 18.6467 33.9965 18.2593 33.9965 17.83C33.9965 17.382 34.1038 16.99 34.3185 16.654C34.5425 16.318 34.8925 16.0567 35.3685 15.87C35.8445 15.674 36.4652 15.576 37.2305 15.576H39.2325V16.85H37.4685C36.9552 16.85 36.6005 16.934 36.4045 17.102C36.2178 17.27 36.1245 17.48 36.1245 17.732C36.1245 18.012 36.2318 18.236 36.4465 18.404C36.6705 18.5627 36.9738 18.642 37.3565 18.642C37.7205 18.642 38.0472 18.558 38.3365 18.39C38.6258 18.2127 38.8358 17.956 38.9665 17.62L39.3025 18.628C39.1438 19.1133 38.8545 19.482 38.4345 19.734C38.0145 19.986 37.4732 20.112 36.8105 20.112ZM43.1271 20V12.468H45.2131V14.596L44.9191 13.98C45.1431 13.448 45.5025 13.0467 45.9971 12.776C46.4918 12.496 47.0938 12.356 47.8031 12.356V14.372C47.7098 14.3627 47.6258 14.358 47.5511 14.358C47.4765 14.3487 47.3971 14.344 47.3131 14.344C46.7158 14.344 46.2305 14.5167 45.8571 14.862C45.4931 15.198 45.3111 15.7253 45.3111 16.444V20H43.1271ZM49.1154 20V12.468H51.2994V20H49.1154ZM50.2074 11.418C49.8061 11.418 49.4794 11.3013 49.2274 11.068C48.9754 10.8347 48.8494 10.5453 48.8494 10.2C48.8494 9.85467 48.9754 9.56533 49.2274 9.332C49.4794 9.09867 49.8061 8.982 50.2074 8.982C50.6088 8.982 50.9354 9.094 51.1874 9.318C51.4394 9.53267 51.5654 9.81267 51.5654 10.158C51.5654 10.522 51.4394 10.8253 51.1874 11.068C50.9448 11.3013 50.6181 11.418 50.2074 11.418ZM56.4064 20.112C55.5197 20.112 54.829 19.888 54.3344 19.44C53.8397 18.9827 53.5924 18.306 53.5924 17.41V10.802H55.7764V17.382C55.7764 17.6993 55.8604 17.9467 56.0284 18.124C56.1964 18.292 56.425 18.376 56.7144 18.376C57.0597 18.376 57.3537 18.2827 57.5964 18.096L58.1844 19.636C57.9604 19.7947 57.6897 19.916 57.3724 20C57.0644 20.0747 56.7424 20.112 56.4064 20.112ZM52.4304 14.316V12.636H57.6524V14.316H52.4304ZM60.2256 22.828C59.8336 22.828 59.4463 22.7673 59.0636 22.646C58.681 22.5247 58.3683 22.3567 58.1256 22.142L58.9236 20.588C59.0916 20.7373 59.283 20.854 59.4976 20.938C59.7216 21.022 59.941 21.064 60.1556 21.064C60.4636 21.064 60.7063 20.9893 60.8836 20.84C61.0703 20.7 61.2383 20.462 61.3876 20.126L61.7796 19.202L61.9476 18.964L64.6496 12.468H66.7496L63.3476 20.462C63.105 21.0687 62.825 21.5447 62.5076 21.89C62.1996 22.2353 61.8543 22.478 61.4716 22.618C61.0983 22.758 60.683 22.828 60.2256 22.828ZM61.5136 20.294L58.1536 12.468H60.4076L63.0116 18.768L61.5136 20.294Z" fill="white"/>
</svg>
